<?xml version="1.0" encoding="UTF-8"?>
<!-- Generator: Adobe Illustrator 17.0.0, SVG Export Plug-In . SVG Version: 6.00 Build 0)  -->
<!DOCTYPE svg PUBLIC "-//W3C//DTD SVG 1.1//EN" "http://www.w3.org/Graphics/SVG/1.1/DTD/svg11.dtd">
<svg version="1.1" id="Layer_1" xmlns="http://www.w3.org/2000/svg" xmlns:xlink="http://www.w3.org/1999/xlink" x="0px" y="0px" viewBox="0 0 67.985 51.56" enable-background="new 0 0 67.985 51.56" xml:space="preserve">
<path fill="#49494A" d="M67.985,25.888c-0.832-2.495-0.596-6.753-1.022-7.367c-2.771-3.807-12.885-4.476-17.43-9.49  c0.799-2.464-0.825-4.515-2.48-6.074c-2.493-1.816-5.958-1.016-8.63-0.286c-3.033-0.646-5.839-1.729-8.793-2.595  c-6.577-0.718-13.094,3.927-13.094,3.927C11.843,6.982,4.479,13.161,0.953,16.766c0.863,0.126,1.779-0.527,2.755-0.642l6.74-1.75  C7.638,16.696,1.725,20.775,0,24.015c2.106-0.721,6.533-3.166,8.724-3.352c-1.926,1.699-5.942,4.919-7.209,6.977  c0.151,0.072,0.045,0.251,0.069,0.377c1.652-0.909,5.668-3.29,7.485-3.439c-1.884,1.953-5.345,5.708-6.116,8.237  c1.632-1.068,5.727-3.224,7.515-3.874c-0.413,0.998-1.321,1.733-1.914,2.729c-0.819,1.378-2.745,2.938-2.829,4.581  c1.432-1.328,3.203-2.496,4.982-3.429c-0.803,1.654-2.264,3.019-2.676,4.992c1.172-1.13,3.377-1.705,4.875-2.22l-0.178,0.173  c-0.133,0.105-1.827,1.303-2.983,2.645c1.021-0.058,0.261-0.188,1.565,0.11l0.707,0.039c-0.353,0.184-0.737,0.386-1.144,0.603l0,0  c-0.629,0.33-1.305,0.695-1.99,1.072c2.801,3.576,6.28,6.445,10.274,8.394c5.201,2.537,10.872,3.367,16.546,2.72  c-0.149-0.745-0.335-1.48-0.598-2.191l0,0c-0.006-0.021-0.015-0.042-0.021-0.063c1.94-3.607,0.921-9.786,5.893-12.262  c3.343-1.703,3.723-2.646,7.569-1.91c2.077,0.394,6.611,1.961,8.792,1.492c1.982-1.096,2.975-1.6,4.687-2.875  c2.139,0.389,2.832,0.17,3.619-0.962c-0.713,0.988,1.385-3.868,2.271-5.699L67.985,25.888z"/>
</svg>
